<mxfile host="app.diagrams.net" agent="Mozilla/5.0 (Windows NT 10.0; Win64; x64) AppleWebKit/537.36 (KHTML, like Gecko) Chrome/133.0.0.0 Safari/537.36" version="26.0.14">
  <diagram name="Page-1" id="7e0a89b8-554c-2b80-1dc8-d5c74ca68de4">
    <mxGraphModel dx="3585" dy="1930" grid="1" gridSize="10" guides="1" tooltips="1" connect="1" arrows="1" fold="1" page="1" pageScale="1" pageWidth="1100" pageHeight="850" background="none" math="0" shadow="0">
      <root>
        <mxCell id="0" />
        <mxCell id="1" parent="0" />
        <mxCell id="vvjl5Rl-EW8DhaFtC5Rf-1" value="&lt;font style=&quot;font-size: 18px;&quot;&gt;&lt;b&gt;Audio CODEC&lt;/b&gt;&lt;/font&gt;" style="rounded=1;whiteSpace=wrap;html=1;fillColor=#fff2cc;strokeColor=#d6b656;" parent="1" vertex="1">
          <mxGeometry x="290" y="210" width="184" height="120" as="geometry" />
        </mxCell>
        <mxCell id="qMrNbG1LsC65MeUiSDpa-2" value="" style="edgeStyle=orthogonalEdgeStyle;rounded=0;orthogonalLoop=1;jettySize=auto;html=1;strokeWidth=2;" edge="1" parent="1" source="vvjl5Rl-EW8DhaFtC5Rf-3" target="qMrNbG1LsC65MeUiSDpa-1">
          <mxGeometry relative="1" as="geometry" />
        </mxCell>
        <mxCell id="vvjl5Rl-EW8DhaFtC5Rf-3" value="&lt;font style=&quot;font-size: 18px;&quot;&gt;&lt;b&gt;Piezoelectric Disk&lt;/b&gt;&lt;/font&gt;" style="rounded=1;whiteSpace=wrap;html=1;fillColor=#d5e8d4;strokeColor=#82b366;" parent="1" vertex="1">
          <mxGeometry x="50" y="40" width="150" height="70" as="geometry" />
        </mxCell>
        <mxCell id="qMrNbG1LsC65MeUiSDpa-6" value="" style="edgeStyle=orthogonalEdgeStyle;rounded=0;orthogonalLoop=1;jettySize=auto;html=1;strokeWidth=2;startArrow=classic;startFill=1;" edge="1" parent="1" source="vvjl5Rl-EW8DhaFtC5Rf-30" target="vvjl5Rl-EW8DhaFtC5Rf-1">
          <mxGeometry relative="1" as="geometry" />
        </mxCell>
        <mxCell id="qMrNbG1LsC65MeUiSDpa-7" value="&lt;font style=&quot;font-size: 18px;&quot;&gt;&lt;b&gt;USB 2.0&lt;/b&gt;&lt;/font&gt;" style="edgeLabel;html=1;align=center;verticalAlign=middle;resizable=0;points=[];" vertex="1" connectable="0" parent="qMrNbG1LsC65MeUiSDpa-6">
          <mxGeometry x="0.375" y="2" relative="1" as="geometry">
            <mxPoint x="-2" y="-15" as="offset" />
          </mxGeometry>
        </mxCell>
        <mxCell id="vvjl5Rl-EW8DhaFtC5Rf-30" value="&lt;b style=&quot;font-size: 18px;&quot;&gt;USBC Power In &amp;amp; Digital Audio Data Out&lt;/b&gt;" style="rounded=1;whiteSpace=wrap;html=1;fillColor=#e1d5e7;strokeColor=#9673a6;" parent="1" vertex="1">
          <mxGeometry x="290" y="40" width="184" height="90" as="geometry" />
        </mxCell>
        <mxCell id="qMrNbG1LsC65MeUiSDpa-5" value="" style="edgeStyle=orthogonalEdgeStyle;rounded=0;orthogonalLoop=1;jettySize=auto;html=1;strokeWidth=2;" edge="1" parent="1" source="qMrNbG1LsC65MeUiSDpa-1" target="qMrNbG1LsC65MeUiSDpa-4">
          <mxGeometry relative="1" as="geometry" />
        </mxCell>
        <mxCell id="qMrNbG1LsC65MeUiSDpa-1" value="&lt;font style=&quot;font-size: 18px;&quot;&gt;&lt;b&gt;Overvoltage Protection Circuit&lt;/b&gt;&lt;/font&gt;" style="rounded=1;whiteSpace=wrap;html=1;fillColor=#f8cecc;strokeColor=#b85450;" vertex="1" parent="1">
          <mxGeometry x="50" y="150" width="150" height="70" as="geometry" />
        </mxCell>
        <mxCell id="qMrNbG1LsC65MeUiSDpa-9" value="" style="edgeStyle=orthogonalEdgeStyle;rounded=0;orthogonalLoop=1;jettySize=auto;html=1;strokeWidth=2;" edge="1" parent="1" source="qMrNbG1LsC65MeUiSDpa-4" target="vvjl5Rl-EW8DhaFtC5Rf-1">
          <mxGeometry relative="1" as="geometry">
            <Array as="points">
              <mxPoint x="260" y="295" />
              <mxPoint x="260" y="295" />
            </Array>
          </mxGeometry>
        </mxCell>
        <mxCell id="qMrNbG1LsC65MeUiSDpa-4" value="&lt;b&gt;&lt;font style=&quot;font-size: 18px;&quot;&gt;JFET Impedance Converter&lt;/font&gt;&lt;/b&gt;" style="rounded=1;whiteSpace=wrap;html=1;fillColor=#dae8fc;strokeColor=#6c8ebf;" vertex="1" parent="1">
          <mxGeometry x="50" y="260" width="150" height="70" as="geometry" />
        </mxCell>
      </root>
    </mxGraphModel>
  </diagram>
</mxfile>
